<?xml version="1.0" standalone="no"?>
<!DOCTYPE svg PUBLIC "-//W3C//DTD SVG 20010904//EN"
 "http://www.w3.org/TR/2001/REC-SVG-20010904/DTD/svg10.dtd">
<svg version="1.0" xmlns="http://www.w3.org/2000/svg"
 width="100%" viewBox="0 0 1500.000000 1200.000000">
<metadata>
Created by potrace 1.11, written by Peter Selinger 2001-2013
</metadata>
<g transform="translate(0.000000,1200.000000) scale(0.100000,-0.100000)"
fill="#000000" stroke="none">
<path d="M7440 11350 c-8 -5 -41 -11 -74 -15 -213 -22 -483 -109 -651 -210
-268 -161 -480 -390 -609 -660 -50 -104 -62 -135 -100 -263 -52 -180 -61 -251
-61 -497 1 -259 9 -317 73 -520 105 -336 352 -659 647 -847 137 -87 387 -193
474 -200 33 -3 35 -1 80 82 60 110 120 218 163 300 20 36 46 85 60 110 24 43
44 81 150 274 26 49 48 92 48 96 0 10 -29 17 -100 26 -240 29 -430 144 -519
312 -39 74 -47 101 -66 207 -44 241 12 456 159 608 186 194 452 253 725 161
196 -66 352 -242 401 -453 45 -195 -18 -445 -185 -727 -25 -42 -45 -77 -45
-79 0 -1 -25 -47 -56 -101 -31 -55 -68 -119 -82 -144 -28 -50 -224 -397 -253
-447 -10 -18 -35 -63 -55 -100 -21 -37 -48 -85 -61 -105 -13 -21 -23 -39 -23
-41 0 -3 -34 -65 -76 -138 -42 -74 -85 -150 -96 -169 -11 -19 -23 -39 -28 -43
-6 -7 -402 187 -435 212 -5 5 -55 32 -110 61 -55 29 -120 64 -145 78 -25 13
-83 45 -130 70 -47 25 -101 54 -120 65 -159 91 -530 278 -645 326 -192 80
-346 130 -482 157 -116 22 -387 23 -533 0 -128 -19 -308 -68 -395 -106 -144
-64 -156 -71 -141 -85 8 -8 32 -17 55 -21 31 -5 41 -11 41 -25 0 -14 7 -19 25
-19 14 0 25 -4 25 -9 0 -5 16 -12 36 -16 41 -7 64 -25 64 -49 0 -10 9 -16 25
-16 14 0 25 -4 25 -10 0 -5 12 -13 27 -16 30 -8 53 -26 53 -43 0 -6 14 -11 31
-11 22 0 32 -5 36 -20 3 -11 9 -20 14 -20 5 0 9 -7 9 -15 0 -9 9 -15 25 -15
27 0 85 -51 85 -75 0 -8 7 -15 15 -15 9 0 18 -7 21 -15 4 -8 10 -15 16 -15 10
0 38 -25 38 -35 0 -9 68 -75 77 -75 5 0 15 -9 23 -20 8 -11 20 -20 26 -20 7 0
15 -13 19 -30 4 -16 15 -32 26 -35 10 -4 19 -15 19 -26 0 -12 7 -19 19 -19 12
0 21 -9 25 -25 4 -14 11 -25 16 -25 6 0 10 -7 10 -16 0 -18 24 -44 41 -44 52
0 380 -139 468 -199 14 -9 49 -28 76 -41 28 -13 66 -34 85 -46 19 -11 76 -42
125 -69 50 -26 95 -51 100 -55 6 -4 55 -31 110 -60 55 -29 105 -56 110 -60 6
-4 46 -26 90 -50 104 -55 199 -107 255 -138 25 -14 70 -38 100 -55 30 -16 75
-41 100 -55 25 -14 74 -40 109 -59 35 -19 73 -40 85 -47 11 -8 57 -33 101 -56
44 -24 105 -56 135 -73 30 -16 89 -48 130 -70 41 -22 101 -55 133 -73 32 -19
60 -34 62 -34 2 0 34 -17 72 -39 37 -21 94 -52 126 -70 31 -17 83 -45 115 -63
31 -17 80 -44 107 -58 28 -15 70 -38 95 -52 25 -14 77 -42 115 -63 39 -21 93
-50 120 -65 28 -15 84 -45 125 -67 41 -22 95 -51 120 -65 25 -14 79 -43 120
-65 41 -22 91 -49 110 -60 19 -11 89 -48 155 -83 66 -35 125 -66 130 -71 13
-9 233 -119 300 -149 219 -98 410 -165 540 -190 33 -6 79 -16 102 -21 55 -12
348 -12 410 0 26 6 80 15 118 22 66 11 120 23 210 49 84 25 244 96 333 149
252 150 476 392 593 641 53 113 69 153 94 233 81 265 102 592 54 837 -26 135
-32 160 -56 240 -78 263 -235 508 -449 699 -193 172 -459 306 -714 361 -30 6
-71 16 -90 20 -68 17 -316 32 -415 25 -113 -7 -264 -30 -345 -52 -30 -8 -68
-18 -85 -23 -120 -31 -310 -124 -445 -218 -117 -80 -336 -298 -405 -402 -68
-102 -155 -279 -184 -370 -13 -41 -27 -85 -32 -98 -17 -44 -10 -56 54 -90 34
-19 109 -59 167 -89 214 -114 256 -136 305 -163 28 -15 109 -58 180 -95 72
-37 134 -71 139 -76 22 -20 35 -7 41 39 43 333 177 523 426 607 110 36 323 47
434 21 295 -68 495 -327 495 -638 0 -307 -214 -572 -512 -632 -42 -9 -106 -16
-141 -16 -59 0 -233 36 -282 59 -11 5 -47 19 -80 32 -33 13 -80 34 -105 47
-68 36 -166 90 -250 137 -41 23 -106 59 -145 80 -38 21 -96 53 -128 71 -32 19
-60 34 -63 34 -2 0 -21 10 -42 23 -20 13 -77 45 -126 71 -50 26 -124 67 -165
90 -42 24 -101 57 -131 73 -30 17 -116 64 -190 105 -74 42 -159 88 -188 103
-30 15 -56 34 -59 41 -2 7 11 40 31 74 20 34 36 63 36 64 0 2 25 47 55 101 30
53 55 98 55 100 0 1 25 46 55 100 30 53 55 99 55 102 0 3 8 17 18 31 11 15 38
63 62 107 23 44 62 114 85 155 23 41 60 109 82 150 44 81 78 143 120 218 110
196 235 446 288 577 15 39 33 84 40 100 23 54 73 219 83 275 28 140 32 181 32
292 0 205 -49 470 -119 643 -4 11 -34 72 -65 136 -90 180 -224 347 -383 478
-61 50 -225 161 -238 161 -4 0 -19 8 -33 18 -38 26 -213 96 -302 121 -83 23
-204 46 -293 57 -31 3 -59 10 -62 14 -7 11 -308 10 -325 0z"/>
<path d="M5676 7148 c-2 -7 -9 -52 -15 -99 -18 -138 -63 -261 -126 -343 -19
-25 -29 -46 -24 -48 14 -5 13 -542 -1 -546 -5 -2 -10 -30 -10 -63 0 -52 -2
-59 -20 -59 -17 0 -20 -7 -20 -50 0 -27 -4 -50 -10 -50 -5 0 -10 -18 -10 -40
0 -22 -4 -40 -9 -40 -5 0 -12 -34 -16 -75 -5 -54 -11 -75 -21 -75 -8 0 -14 -9
-14 -20 0 -11 -7 -20 -15 -20 -10 0 -15 -11 -15 -35 0 -19 -4 -35 -10 -35 -5
0 -10 -9 -10 -20 0 -30 32 -26 182 24 418 137 752 422 936 799 55 111 125 309
117 329 -5 12 -164 100 -485 268 -311 164 -366 194 -374 201 -14 13 -26 11
-30 -3z"/>
<path d="M2483 4145 c-220 -34 -395 -125 -559 -289 -189 -191 -286 -420 -301
-712 -17 -346 150 -698 427 -900 108 -78 207 -126 346 -166 68 -19 103 -22
254 -22 137 0 189 3 240 17 195 54 341 139 476 279 113 117 180 226 238 386
44 123 66 112 -231 112 l-258 0 -40 -71 c-52 -93 -156 -191 -244 -232 -85 -39
-224 -49 -317 -22 -186 54 -338 235 -378 454 -20 104 -20 162 -1 254 30 143
75 229 169 323 57 56 86 77 146 102 243 100 500 1 625 -241 l40 -77 258 0 257
0 0 28 c0 40 -43 163 -87 247 -65 125 -173 255 -285 341 -208 161 -499 232
-775 189z"/>
<path d="M3850 3105 l0 -1055 560 0 560 0 -2 238 -3 237 -295 2 -295 2 -5 813
-5 813 -257 3 -258 2 0 -1055z"/>
<path d="M5935 4149 c-226 -31 -411 -123 -570 -283 -186 -187 -287 -408 -304
-669 -23 -344 64 -605 279 -831 137 -143 289 -233 490 -289 103 -29 391 -31
490 -4 194 54 343 135 470 259 214 206 320 463 320 773 0 307 -105 562 -316
766 -146 140 -301 223 -494 265 -86 18 -277 25 -365 13z m255 -461 c185 -35
355 -218 404 -435 49 -219 -12 -441 -164 -593 -113 -114 -224 -157 -375 -147
-100 7 -162 28 -248 85 -109 71 -195 199 -231 343 -21 84 -21 254 -1 334 56
222 218 382 421 418 80 14 95 14 194 -5z"/>
<path d="M7303 3413 c3 -844 0 -800 83 -972 37 -76 61 -109 127 -176 101 -101
188 -150 347 -193 58 -15 127 -17 675 -17 l610 0 0 1050 0 1050 -227 3 -228 2
-2 -817 -3 -818 -310 -3 c-371 -4 -411 3 -473 73 -20 23 -46 64 -57 91 -19 47
-20 80 -25 759 l-5 710 -258 3 -258 2 4 -747z"/>
<path d="M9405 4148 c-3 -7 -4 -481 -3 -1053 l3 -1040 465 0 c443 1 469 2 551
23 399 100 610 318 705 727 26 114 27 466 1 575 -55 233 -131 375 -276 521
-153 153 -321 225 -581 248 -172 16 -859 15 -865 -1z m898 -488 c150 -47 255
-158 301 -320 24 -88 35 -225 25 -329 -15 -164 -56 -267 -140 -356 -93 -99
-209 -134 -429 -132 l-135 2 -3 578 -2 577 159 0 c131 0 170 -4 224 -20z"/>
<path d="M12280 4119 c-299 -38 -556 -205 -706 -459 -53 -90 -106 -225 -130
-335 -25 -112 -25 -368 0 -480 83 -367 325 -646 656 -754 72 -24 64 -29 111
64 17 33 78 150 135 261 57 111 104 205 104 210 0 5 -37 16 -83 25 -105 21
-166 50 -222 107 -96 97 -137 266 -104 424 34 161 166 284 327 306 254 35 456
-144 455 -403 0 -121 -33 -212 -166 -460 -29 -55 -119 -221 -199 -370 -80
-148 -168 -313 -195 -365 -77 -144 -188 -352 -312 -582 -61 -115 -111 -212
-111 -218 0 -6 121 -10 348 -10 l347 1 27 57 c24 52 70 140 237 457 32 61 83
157 113 215 31 58 98 186 150 285 245 464 320 637 358 830 7 33 16 65 20 70
11 13 10 186 0 200 -4 6 -13 44 -20 85 -37 232 -131 420 -287 571 -223 217
-520 310 -853 268z"/>
</g>
</svg>
