<?xml version="1.0" standalone="no"?>
<!DOCTYPE svg PUBLIC "-//W3C//DTD SVG 20010904//EN"
 "http://www.w3.org/TR/2001/REC-SVG-20010904/DTD/svg10.dtd">
<svg version="1.0" xmlns="http://www.w3.org/2000/svg"
 width="1600.000000pt" height="1253.000000pt"
 preserveAspectRatio="xMidYMid meet">
<metadata>
Created by potrace 1.11, written by Peter Selinger 2001-2013
</metadata>
<g transform="translate(0.000000,1253.000000) scale(0.100000,-0.100000)"
fill="#000000" stroke="none">
<path d="M10144 12506 c-17 -8 -94 -30 -170 -50 -460 -118 -1150 -192 -2204
-235 -221 -10 -345 -13 -870 -26 -118 -3 -602 -10 -1075 -15 -1409 -16 -1408
-16 -1565 -91 -133 -64 -307 -158 -800 -432 -657 -365 -666 -369 -1038 -491
-479 -157 -540 -170 -882 -186 -369 -18 -598 -51 -781 -111 -96 -32 -147 -57
-187 -93 -27 -24 -61 -131 -97 -306 -14 -69 -36 -159 -48 -200 -21 -75 -22
-75 -182 -241 -170 -176 -205 -226 -230 -330 -20 -85 -19 -145 4 -195 24 -52
61 -81 130 -101 l56 -17 1 -145 c1 -105 7 -175 23 -251 69 -342 252 -769 539
-1255 80 -137 252 -405 259 -405 2 0 -4 15 -15 33 -33 53 -97 214 -140 347
-137 432 -191 1053 -141 1650 5 63 12 134 15 156 l6 41 186 6 c180 5 365 25
635 68 71 11 130 19 132 17 1 -2 5 -97 8 -213 15 -544 124 -1009 339 -1440 94
-188 245 -413 367 -545 l50 -55 -24 61 c-141 356 -215 856 -215 1449 0 299 3
387 26 638 8 86 14 165 14 174 0 14 13 15 123 9 388 -20 978 -120 1427 -241
355 -95 637 -200 920 -341 587 -294 930 -667 1026 -1117 47 -222 39 -780 -17
-1127 -142 -896 -567 -1494 -1249 -1763 -230 -90 -444 -130 -695 -130 -262 0
-368 26 -520 128 -275 183 -648 574 -973 1019 -40 54 -72 95 -72 91 0 -3 29
-93 64 -198 203 -614 522 -1260 923 -1872 143 -217 322 -454 413 -546 159
-161 389 -248 697 -265 196 -11 450 22 596 76 108 40 249 147 698 528 439 372
688 572 1134 915 55 42 132 104 170 138 253 220 829 605 1299 868 489 274
1142 593 1636 801 69 29 154 65 190 80 105 46 530 213 725 285 731 272 1642
563 2385 760 96 26 213 57 260 70 406 113 1461 354 2064 471 177 35 216 46
216 64 0 4 -48 34 -107 66 -458 244 -1018 601 -1432 913 -309 233 -388 288
-531 374 -380 227 -882 424 -1341 527 -74 16 -145 32 -158 35 -31 8 -19 17 54
43 60 21 670 241 1100 397 225 81 842 304 1019 368 49 18 82 33 75 34 -62 11
-1941 136 -2229 148 -524 23 -1073 94 -1969 255 -291 52 -1022 200 -1039 209
-17 10 -23 6 523 377 492 333 522 354 509 354 -5 -1 -23 -7 -40 -14z m-3824
-1106 c124 -11 380 -36 570 -55 190 -18 407 -39 483 -46 75 -7 137 -16 137
-21 0 -4 -10 -8 -23 -8 -121 0 -566 -198 -977 -436 -102 -59 -201 -116 -221
-127 l-36 -21 -359 73 c-723 146 -954 194 -954 201 0 17 358 202 542 280 225
95 544 194 593 184 11 -2 121 -13 245 -24z"/>
<path d="M15715 8063 c-11 -3 -146 -31 -300 -64 -1625 -346 -3135 -793 -4450
-1316 -278 -111 -692 -285 -840 -353 -38 -18 -162 -75 -275 -127 -1046 -484
-2046 -1091 -2800 -1697 -358 -288 -739 -655 -930 -896 l-31 -39 98 40 c716
292 1636 567 2464 734 243 50 517 97 531 93 5 -2 -33 -28 -84 -58 -243 -143
-603 -397 -838 -589 -104 -86 -303 -271 -297 -277 1 -2 32 6 67 17 771 242
1725 441 2575 538 314 36 849 78 892 69 9 -2 -55 -27 -142 -56 -370 -124 -749
-287 -990 -424 -90 -52 -223 -136 -255 -161 -22 -17 -22 -19 -4 -13 33 10 424
75 579 96 174 23 574 64 800 82 362 28 1340 14 1566 -21 47 -8 49 -7 86 32 21
21 74 68 119 103 369 289 1011 568 1749 759 l170 44 -330 1 c-678 0 -1333 -45
-1922 -134 l-211 -32 19 27 c29 41 230 231 359 338 543 454 1323 896 2192
1242 109 44 203 79 210 79 6 0 9 2 6 5 -11 11 -601 -32 -1033 -76 -571 -57
-1265 -169 -1813 -290 -101 -23 -185 -39 -187 -37 -14 14 359 376 606 589 657
564 1603 1197 2519 1686 161 86 180 99 125 86z"/>
<path d="M8935 1998 c-219 -40 -409 -140 -546 -286 -83 -87 -119 -140 -169
-244 -167 -347 -119 -813 111 -1100 283 -353 818 -460 1257 -253 272 129 448
345 519 638 14 55 18 112 17 242 0 148 -4 184 -27 275 -31 129 -56 192 -108
282 -140 240 -384 401 -679 448 -78 12 -306 11 -375 -2z m320 -510 c75 -19
174 -79 227 -137 137 -150 168 -394 72 -583 -58 -115 -187 -211 -321 -238 -82
-17 -223 -7 -300 21 -133 49 -244 161 -290 292 -27 77 -24 261 6 341 46 127
125 215 244 272 109 52 242 63 362 32z"/>
<path d="M12045 1576 l-420 -413 -5 409 -5 410 -423 -426 c-232 -234 -424
-426 -425 -426 -1 0 -1 188 1 418 l3 419 -128 6 c-70 4 -185 7 -255 7 l-128 0
0 -977 0 -978 223 221 c122 122 312 309 422 417 l200 196 3 -417 3 -417 240
245 c132 135 525 531 872 880 348 349 677 681 731 738 l100 102 -295 0 -294 0
-420 -414z"/>
<path d="M80 1740 l0 -240 265 0 265 0 0 240 0 240 -265 0 -265 0 0 -240z"/>
<path d="M990 1006 l0 -976 270 0 270 0 0 723 -1 722 258 3 c142 2 272 0 290
-3 46 -8 91 -50 99 -90 7 -41 -19 -100 -57 -128 -33 -24 -51 -26 -276 -26
l-183 -1 0 -235 0 -235 210 0 c244 0 271 -6 296 -66 21 -51 11 -99 -31 -141
-30 -30 -39 -33 -97 -35 -34 0 -74 -2 -88 -3 -14 -2 -85 -3 -157 -4 l-133 -1
0 -241 0 -241 263 4 c244 4 268 6 344 30 196 60 335 196 394 388 19 61 24 97
23 195 0 138 -18 218 -68 310 l-33 60 25 40 c78 123 102 336 57 508 -51 197
-189 330 -402 389 -75 21 -99 22 -675 26 l-598 3 0 -975z"/>
<path d="M2840 1322 c0 -625 1 -663 20 -738 100 -395 502 -650 898 -568 304
62 552 286 622 560 19 73 20 112 20 741 l0 663 -260 0 -259 0 -3 -637 c-3
-708 0 -678 -71 -751 -53 -56 -102 -76 -182 -76 -80 0 -131 21 -188 78 -70 70
-67 33 -67 745 l0 641 -265 0 -265 0 0 -658z"/>
<path d="M4580 1005 l0 -975 268 0 267 0 -2 232 -3 232 273 275 c247 250 640
649 1042 1059 l149 152 -339 0 -340 0 -385 -385 c-212 -212 -388 -385 -392
-385 -4 0 -7 173 -5 385 l2 385 -267 0 -268 0 0 -975z"/>
<path d="M6518 1713 l-268 -268 0 -708 0 -707 265 0 265 0 0 725 0 725 194 0
c106 0 218 -5 247 -10 118 -22 181 -103 182 -233 0 -85 -23 -141 -77 -182 -57
-43 -115 -55 -268 -55 l-138 0 0 -235 0 -235 243 0 c210 0 255 3 321 20 167
43 331 160 427 308 116 177 144 370 88 602 -62 252 -230 424 -484 491 -72 20
-113 22 -405 26 l-325 4 -267 -268z"/>
<path d="M12987 1712 l-267 -267 0 -708 0 -707 690 0 690 0 0 240 0 240 -425
0 -425 0 0 125 0 125 425 0 425 0 0 238 0 237 -422 0 -423 0 -3 123 -3 122
428 0 428 0 250 250 250 250 -675 0 -675 0 -268 -268z"/>
<path d="M14538 1713 l-268 -268 0 -708 0 -707 270 0 270 0 0 726 0 726 233
-3 c224 -4 234 -5 282 -29 27 -14 60 -40 72 -58 50 -76 35 -217 -29 -278 -58
-56 -71 -59 -254 -64 l-170 -5 168 -370 c92 -203 192 -426 223 -495 30 -69 59
-131 63 -138 7 -9 74 -12 303 -10 l295 3 -163 390 c-89 215 -162 395 -163 401
0 7 21 26 48 42 96 63 182 175 223 293 34 97 38 278 10 390 -29 116 -65 184
-136 254 -70 71 -153 117 -262 147 -70 19 -111 21 -413 25 l-335 4 -267 -268z"/>
<path d="M80 625 l0 -595 265 0 265 0 0 595 0 595 -265 0 -265 0 0 -595z"/>
</g>
</svg>
