<?xml version="1.0" standalone="no"?>
<!DOCTYPE svg PUBLIC "-//W3C//DTD SVG 20010904//EN"
 "http://www.w3.org/TR/2001/REC-SVG-20010904/DTD/svg10.dtd">
<svg version="1.0" xmlns="http://www.w3.org/2000/svg"
 width="2000.000000pt" height="2000.000000pt" viewBox="0 0 2000.000000 2000.000000"
 preserveAspectRatio="xMidYMid meet">
<metadata>
Created by potrace 1.11, written by Peter Selinger 2001-2013
</metadata>
<g transform="translate(0.000000,2000.000000) scale(0.100000,-0.100000)"
fill="#000000" stroke="none">
<path d="M5315 18611 l-90 -6 65 -8 c36 -4 137 -14 225 -23 594 -57 1226 -189
1840 -383 104 -33 191 -59 192 -57 3 3 -125 347 -130 353 -6 5 -359 55 -512
73 -374 42 -559 52 -1035 55 -256 1 -505 0 -555 -4z"/>
<path d="M7606 18378 c25 -46 103 -200 174 -343 404 -819 732 -1711 925 -2520
27 -110 50 -202 51 -204 2 -2 88 13 191 33 427 82 944 152 1338 181 44 3 103
8 130 12 49 5 48 4 -180 -149 -691 -463 -1206 -879 -1683 -1361 l-134 -134 84
-67 c112 -91 271 -197 528 -356 118 -73 251 -157 295 -188 98 -67 265 -200
265 -210 0 -4 -30 -18 -67 -31 -203 -72 -497 -216 -883 -434 l-255 -144 -50
19 c-111 43 -248 119 -405 224 -91 61 -221 148 -290 195 -139 93 -245 153
-259 145 -37 -23 -48 -572 -17 -916 29 -323 90 -780 105 -780 4 0 41 25 82 56
840 634 1981 1277 3006 1695 73 30 133 56 133 59 1 18 -311 418 -475 610 -69
80 -80 97 -48 72 113 -89 318 -277 490 -449 105 -106 197 -193 203 -193 6 0
91 18 188 41 687 158 1392 289 1877 348 94 12 189 24 212 27 l43 5 -86 170
c-367 733 -855 1458 -1409 2094 -182 209 -658 686 -856 858 -562 490 -1151
904 -1789 1259 -308 172 -389 202 -885 328 -198 50 -556 130 -585 130 -5 0 11
-37 36 -82z m381 -414 c470 -196 1051 -486 1363 -682 36 -22 107 -66 158 -97
51 -32 94 -61 97 -65 2 -4 -49 -10 -115 -14 -273 -15 -717 -79 -1009 -145
-133 -30 -150 -30 -151 1 0 10 -130 296 -231 510 -75 158 -226 451 -271 526
-11 17 -15 32 -10 32 6 0 82 -30 169 -66z"/>
<path d="M7700 16741 c-124 -43 -295 -106 -380 -141 -1804 -735 -3246 -2196
-3955 -4005 -75 -191 -177 -485 -172 -498 1 -5 48 42 103 105 1152 1294 2574
2225 4246 2778 180 60 517 160 676 200 29 7 42 16 42 28 0 36 -42 365 -66 522
-35 230 -114 622 -176 876 -47 193 -54 214 -72 213 -12 0 -122 -35 -246 -78z"/>
<path d="M12290 16703 c172 -157 530 -515 687 -687 1046 -1143 1791 -2481
2227 -4001 l55 -190 63 2 c139 6 588 71 893 129 217 42 617 133 627 143 5 4
-21 91 -56 194 -296 864 -745 1648 -1344 2347 -141 164 -471 501 -642 654
-711 639 -1562 1141 -2440 1440 l-165 56 95 -87z"/>
<path d="M18641 14772 c0 -7 -10 -101 -21 -209 -68 -655 -201 -1298 -390
-1875 -32 -100 -58 -183 -57 -184 4 -3 342 127 350 135 21 21 83 507 112 871
19 235 30 974 17 1150 -5 69 -10 119 -11 112z"/>
<path d="M6180 12999 c-946 -489 -1734 -1053 -2449 -1754 -659 -647 -1204
-1354 -1669 -2166 -221 -386 -243 -441 -371 -915 -56 -209 -151 -626 -151
-664 0 -4 105 46 233 111 844 428 1833 786 2730 989 100 23 187 43 193 45 8 2
1 56 -22 172 -62 307 -117 659 -153 983 -25 220 -54 572 -49 596 2 13 20 -8
57 -66 240 -380 694 -986 986 -1315 58 -66 184 -210 279 -320 96 -110 198
-226 228 -258 53 -57 54 -57 88 -46 75 26 162 144 312 419 84 154 272 455 351
560 65 88 160 191 167 183 4 -4 33 -75 65 -158 73 -184 216 -469 402 -799
l141 -248 -25 -62 c-46 -113 -117 -240 -219 -391 -55 -82 -143 -213 -195 -290
-106 -158 -157 -250 -145 -262 14 -15 571 -7 806 11 310 23 873 75 878 81 2 2
-52 80 -120 172 -634 857 -1233 1930 -1624 2910 -27 68 -52 123 -56 123 -20 0
-473 -351 -688 -534 l-25 -21 21 25 c131 158 242 279 422 460 l215 215 -47
210 c-140 632 -300 1564 -341 1985 -8 84 -15 120 -23 120 -4 0 -95 -46 -202
-101z m-3280 -3619 c24 -292 72 -611 136 -905 53 -243 53 -217 -3 -239 -26
-11 -70 -29 -98 -42 -27 -12 -138 -61 -245 -109 -107 -47 -313 -147 -457 -220
-145 -74 -263 -131 -263 -128 0 13 145 354 225 528 150 331 411 826 540 1025
23 36 66 104 96 152 30 49 55 85 56 80 1 -4 7 -68 13 -142z"/>
<path d="M12415 12673 c-234 -5 -1051 -46 -1063 -52 -8 -5 27 -59 112 -171
645 -860 1290 -2016 1677 -3007 24 -62 47 -113 50 -113 20 -1 382 274 567 430
160 134 167 137 77 31 -139 -163 -250 -281 -432 -457 l-176 -171 91 -464 c164
-830 247 -1310 308 -1776 3 -24 10 -43 16 -43 13 0 307 152 508 263 1417 782
2596 1872 3475 3211 193 294 443 724 580 996 59 117 181 564 264 961 l38 186
-242 -124 c-843 -429 -1738 -764 -2635 -985 -135 -33 -246 -61 -248 -63 -2 -2
13 -83 32 -181 90 -457 151 -903 191 -1382 8 -101 15 -188 15 -194 0 -7 -64
83 -141 198 -466 690 -864 1187 -1317 1643 l-183 184 -26 -24 c-55 -51 -212
-275 -361 -514 -217 -349 -314 -491 -411 -598 l-34 -38 -54 138 c-74 190 -193
426 -387 773 -119 211 -164 300 -160 315 36 119 156 328 338 590 152 218 252
383 240 395 -26 26 -427 50 -709 43z m5584 -629 c-225 -535 -504 -1078 -774
-1505 l-70 -111 -17 189 c-28 317 -71 598 -135 893 -19 91 -36 171 -37 178 -1
12 39 32 272 132 190 83 529 247 682 330 80 43 146 75 148 71 1 -4 -30 -84
-69 -177z"/>
<path d="M10835 12503 c-1118 -329 -2163 -769 -3122 -1315 -106 -60 -193 -112
-193 -115 0 -13 95 -350 151 -538 259 -859 595 -1710 974 -2460 176 -349 313
-595 332 -595 33 0 469 123 780 221 526 164 1052 362 1558 585 268 118 855
413 1094 549 l192 110 -6 35 c-14 74 -160 567 -242 815 -323 978 -717 1849
-1219 2692 -28 47 -55 82 -64 82 -8 0 -114 -30 -235 -66z"/>
<path d="M12565 8624 c-128 -98 -399 -287 -595 -417 -712 -468 -1594 -929
-2410 -1257 -113 -45 -207 -84 -209 -86 -11 -10 370 -517 501 -667 33 -37 59
-70 57 -72 -10 -10 -288 242 -499 453 l-235 234 -130 -32 c-923 -224 -1607
-360 -2077 -415 -32 -3 -58 -8 -58 -11 0 -10 140 -282 228 -444 919 -1685
2226 -2998 3922 -3942 294 -164 363 -194 570 -254 302 -86 884 -223 896 -211
2 2 -59 126 -134 277 -329 656 -595 1340 -807 2077 -62 214 -155 581 -191 751
-14 65 -21 81 -33 78 -81 -23 -549 -107 -811 -145 -294 -43 -963 -111 -975
-99 -2 2 78 58 178 124 698 466 1274 930 1732 1394 l120 121 -44 37 c-104 88
-250 190 -441 308 -402 248 -707 464 -683 483 4 4 76 33 158 66 185 73 474
218 794 399 284 161 242 155 439 56 117 -59 210 -118 479 -303 169 -116 325
-209 335 -199 31 32 42 716 19 1217 -6 132 -14 304 -18 383 -3 78 -9 142 -12
142 -3 0 -33 -21 -66 -46z m-796 -5601 c63 -173 360 -806 471 -1003 28 -51 50
-93 48 -95 -2 -1 -75 27 -163 64 -560 235 -1048 483 -1484 755 l-194 121 154
12 c316 25 711 85 999 152 69 16 132 30 140 30 10 1 21 -14 29 -36z"/>
<path d="M4755 8144 c-11 -2 -90 -10 -175 -19 -211 -23 -511 -67 -743 -110
-204 -38 -585 -121 -624 -136 l-23 -8 56 -163 c276 -804 671 -1525 1195 -2178
850 -1060 2002 -1868 3273 -2296 l191 -64 -115 106 c-63 59 -207 200 -320 313
-987 992 -1730 2107 -2237 3356 -140 345 -267 713 -368 1073 -41 144 -36 138
-110 126z"/>
<path d="M16719 7763 c-189 -210 -533 -550 -750 -743 -1141 -1017 -2413 -1720
-3884 -2150 l-200 -58 2 -74 c6 -166 68 -627 129 -963 39 -210 120 -585 129
-594 9 -8 331 102 523 179 793 319 1503 760 2132 1326 171 153 501 490 642
654 575 672 1012 1422 1308 2245 57 157 111 325 106 325 -2 0 -63 -66 -137
-147z"/>
<path d="M1690 7414 c-96 -36 -175 -66 -176 -67 -6 -5 -56 -353 -74 -507 -37
-324 -51 -553 -57 -930 -5 -321 2 -738 12 -728 2 2 13 95 24 208 68 665 221
1384 420 1973 22 64 37 117 33 117 -4 -1 -86 -30 -182 -66z"/>
<path d="M12575 1746 c18 -50 48 -131 67 -181 l35 -90 74 -13 c277 -47 724
-94 1069 -112 210 -11 782 -12 945 -1 l100 6 -140 13 c-717 68 -1515 234
-2086 434 l-97 34 33 -90z"/>
</g>
</svg>
